# xmcd CD database file
#
# Track frame offsets:
#	182
#	16582
#	44632
#	60432
#	85805
#	119712
#	156600
#	179907
#	204007
#	235930
#	252105
#	271370
#
# Disc length: 3858 seconds
#
# Revision: 3
# Processed by: cddbd v1.5.2PL0 Copyright (c) Steve Scherf et al.
# Submitted via: CDex 1.51
#
DISCID=a50f100c
DTITLE=Barry White - Barry White - Gold [CD2)
DYEAR=1993
DGENRE=Disco
TTITLE0=What am I gonna do with you
TTITLE1=Let the music play
TTITLE2=You see the trouble with me
TTITLE3=Just the way you are
TTITLE4=Sha la la means I love you
TTITLE5=I've got so much to give
TTITLE6=Honey please can't ya see
TTITLE7=Standing in the shadow of love
TTITLE8=Love serenade
TTITLE9=How did you know it was me ?
TTITLE10=Under the influence of love
TTITLE11=Satin soul
EXTD=YEAR: 1993
EXTT0=
EXTT1=
EXTT2=
EXTT3=
EXTT4=
EXTT5=
EXTT6=
EXTT7=
EXTT8=
EXTT9=
EXTT10=
EXTT11=
PLAYORDER=
